# xmcd
#
# Track frame offsets: 
#        150
#        15574
#        31505
#        49349
#        65225
#        77248
#        91136
#        106458
#        123808
#        136989
#        152990
#        168057
#        182404
#        206598
#        221333
#        236108
#        251112
#        264915
#        281570
#        309058
#
# Disc length: 4352 seconds
#
# Revision: 0
# Processed by: cddbd v1.5.2PL0 Copyright (c) Steve Scherf et al.
# Submitted via: ExactAudioCopy v1.0b3
#
DISCID=0910fe14
DTITLE=Various Artist - Maxximum Dance Vol. 1 - CD 2
DYEAR=1900
DGENRE=
TTITLE0=Cascada - Ready For Love
TTITLE1=Cosmic Gate - Should've Known (Radio Edit)
TTITLE2=Ian Van Dahl - Just A Girl (Megara Vs. DJ Lee Radio Cut)
TTITLE3=Klubbingman Feat. Beatrix Delgado - Ride On A White Train (Lik
TTITLE3=e A Hurricane) (Original Club Radio Edit)
TTITLE4=Sun:Port - Meet The Fallen Angel (Club Cut)
TTITLE5=Azuria - Forgive Me (C7 Meets Ozi Radio Edit)
TTITLE6=Mario Lopez - Lonely (Without You) (Original Radio Cut)
TTITLE7=Tube Tonic and DJ Shandar - The Secret (Single Edit)
TTITLE8=Club Scene Investigators - Direct Dizko (Klubbheads Radio Edit
TTITLE8=)
TTITLE9=Monti - The Rhythm
TTITLE10=Warp Brothers - Push Back
TTITLE11=2 Vibez - On My Way (Radio Edit)
TTITLE12=Pikko Vs. DJ Bomba - House (DJ Bomba Remix)
TTITLE13=Clubraiders - I Want Your Love (Main Radio)
TTITLE14=Hands Up Squad - Popp That Pussy
TTITLE15=Alex Gaudino and Jerma - Reaction (Radio Edit)
TTITLE16=Superfly Inc. - Moving Too Fast (Radio Edit)
TTITLE17=Numa Feat. Christi - A Long Way (Radio Edit)
TTITLE18=Rocco Nocera - Reaction
TTITLE19=Modulation - White Flame
EXTD=
EXTT0=
EXTT1=
EXTT2=
EXTT3=
EXTT4=
EXTT5=
EXTT6=
EXTT7=
EXTT8=
EXTT9=
EXTT10=
EXTT11=
EXTT12=
EXTT13=
EXTT14=
EXTT15=
EXTT16=
EXTT17=
EXTT18=
EXTT19=
PLAYORDER=
